<svg xmlns="http://www.w3.org/2000/svg" viewBox="0 0 426.94 60.03"><defs><style>.cls-1{fill:#273237;}.cls-2{fill:#59fce7;}</style></defs><title>Recurso 6</title><g id="Capa_2" data-name="Capa 2"><g id="Planetoide"><path class="cls-1" d="M.5,58.78V4.4H15.35a26,26,0,0,1,7.84,1.13,17.55,17.55,0,0,1,6.15,3.33,15.27,15.27,0,0,1,4,5.4,17.8,17.8,0,0,1,1.43,7.32,21.83,21.83,0,0,1-1,6.41,15.66,15.66,0,0,1-3.15,5.7A16.12,16.12,0,0,1,25,37.78a20.89,20.89,0,0,1-8.55,1.57H8.75V58.78ZM8.75,31.62h7.42a10.86,10.86,0,0,0,5-1A9.51,9.51,0,0,0,24.39,28,9.62,9.62,0,0,0,26,24.8a11.7,11.7,0,0,0,.49-3.07A11.56,11.56,0,0,0,26,18.61a9,9,0,0,0-1.69-3.15A9.4,9.4,0,0,0,21.16,13a11.07,11.07,0,0,0-4.91-1H8.75Z"/><path class="cls-1" d="M9.25,59.28H0V3.9H15.35a26.59,26.59,0,0,1,8,1.15,18,18,0,0,1,6.32,3.43,15.79,15.79,0,0,1,4.15,5.58,18.41,18.41,0,0,1,1.47,7.52,22.45,22.45,0,0,1-1,6.55A16,16,0,0,1,31,34a16.46,16.46,0,0,1-5.88,4.22,21.36,21.36,0,0,1-8.75,1.62H9.25ZM1,58.28H8.25V38.85H16.4a20.65,20.65,0,0,0,8.35-1.53,15.66,15.66,0,0,0,5.52-4,15.12,15.12,0,0,0,3.05-5.52,21.53,21.53,0,0,0,1-6.26,17.28,17.28,0,0,0-1.39-7.11A14.64,14.64,0,0,0,29,9.24,17.12,17.12,0,0,0,23,6a25.61,25.61,0,0,0-7.69-1.1H1ZM16.17,32.12H8.25V11.55h8a11.64,11.64,0,0,1,5.13,1,9.94,9.94,0,0,1,3.36,2.57,9.41,9.41,0,0,1,1.78,3.32A12.19,12.19,0,0,1,27,21.73a11.93,11.93,0,0,1-.51,3.21,9.94,9.94,0,0,1-1.74,3.39A9.82,9.82,0,0,1,21.43,31,11.41,11.41,0,0,1,16.17,32.12Zm-6.92-1h6.92a10.38,10.38,0,0,0,4.8-1,8.84,8.84,0,0,0,3-2.41,9.09,9.09,0,0,0,1.57-3.06A11.06,11.06,0,0,0,26,21.73a10.92,10.92,0,0,0-.47-3,8.37,8.37,0,0,0-1.6-3,9,9,0,0,0-3-2.31,10.71,10.71,0,0,0-4.69-.92h-7Z"/><path class="cls-1" d="M47.45,58.78H41.08V.5h6.37Z"/><path class="cls-1" d="M48,59.28H40.58V0H48Zm-6.37-1H47V1H41.58Z"/><path class="cls-1" d="M54.35,43.4a16.29,16.29,0,0,1,1.31-6.49,17.25,17.25,0,0,1,8.78-9,15.05,15.05,0,0,1,6.33-1.35,14.52,14.52,0,0,1,4.13.56,13.92,13.92,0,0,1,3.22,1.39,10.06,10.06,0,0,1,2.18,1.73,6.21,6.21,0,0,1,1.12,1.57l.3-4.42h6.15V58.78H81.42v-4a8.6,8.6,0,0,1-1.2,1.43,9.12,9.12,0,0,1-2.13,1.53A15.72,15.72,0,0,1,75,59a14.71,14.71,0,0,1-4.12.53,16.5,16.5,0,0,1-6.64-1.32,16,16,0,0,1-8.62-8.66A15.54,15.54,0,0,1,54.35,43.4ZM60.8,43a10.26,10.26,0,0,0,.79,4,9.83,9.83,0,0,0,2.13,3.22A10.06,10.06,0,0,0,67,52.44a10.61,10.61,0,0,0,4.12.79,11,11,0,0,0,4.17-.79,10.1,10.1,0,0,0,3.3-2.18A9.73,9.73,0,0,0,80.67,47a11.12,11.12,0,0,0,0-8,9.36,9.36,0,0,0-2.13-3.18,10.33,10.33,0,0,0-3.3-2.14,10.79,10.79,0,0,0-4.17-.79,10.43,10.43,0,0,0-4.12.79A9.8,9.8,0,0,0,61.59,39,10,10,0,0,0,60.8,43Z"/><path class="cls-1" d="M70.85,60A17.12,17.12,0,0,1,64,58.67a16.53,16.53,0,0,1-8.88-8.92,16.19,16.19,0,0,1-1.28-6.35,16.73,16.73,0,0,1,1.35-6.69,18,18,0,0,1,3.67-5.47,17.66,17.66,0,0,1,5.36-3.74,15.58,15.58,0,0,1,6.54-1.4,15.1,15.1,0,0,1,4.27.58,14.34,14.34,0,0,1,3.34,1.44,10.84,10.84,0,0,1,2.29,1.82c.12.14.24.27.35.41l.24-3.42h7.11V59.28H80.92V56.22c-.1.12-.22.24-.34.36a9.52,9.52,0,0,1-2.26,1.62,16.38,16.38,0,0,1-3.21,1.28A15.34,15.34,0,0,1,70.85,60ZM70.77,27.1a14.64,14.64,0,0,0-6.13,1.31,16.59,16.59,0,0,0-5.06,3.53,16.93,16.93,0,0,0-3.46,5.17,15.82,15.82,0,0,0-1.27,6.29,15.15,15.15,0,0,0,1.2,6A15.86,15.86,0,0,0,70.85,59a14.14,14.14,0,0,0,4-.51,15.57,15.57,0,0,0,3-1.2,8.76,8.76,0,0,0,2-1.45A8.52,8.52,0,0,0,81,54.54l.92-1.48v5.22h5.45V27.93H82.19l-.4,6L81,32.05a6.17,6.17,0,0,0-1-1.44A9.57,9.57,0,0,0,77.86,29a13,13,0,0,0-3.11-1.34A13.78,13.78,0,0,0,70.77,27.1Zm.3,26.63a11.09,11.09,0,0,1-4.32-.83,10.42,10.42,0,0,1-3.38-2.25,10.58,10.58,0,0,1-2.25-3.38A11,11,0,0,1,60.3,43a10.61,10.61,0,0,1,3.07-7.56,10.39,10.39,0,0,1,3.38-2.24,11.88,11.88,0,0,1,8.68,0,10.9,10.9,0,0,1,3.45,2.25,9.91,9.91,0,0,1,2.26,3.35,11.72,11.72,0,0,1,0,8.41,10.36,10.36,0,0,1-2.25,3.39,10.69,10.69,0,0,1-3.46,2.28A11.36,11.36,0,0,1,71.07,53.73Zm0-20.33a10,10,0,0,0-3.93.75A9.49,9.49,0,0,0,61.3,43a9.83,9.83,0,0,0,.75,3.85,9.34,9.34,0,0,0,2,3.07,9.57,9.57,0,0,0,3.06,2,10.23,10.23,0,0,0,3.93.75,10.56,10.56,0,0,0,4-.75,9.66,9.66,0,0,0,3.13-2.07,9,9,0,0,0,2-3.06,10.66,10.66,0,0,0,0-7.65,8.91,8.91,0,0,0-2-3,10.05,10.05,0,0,0-3.14-2A10.37,10.37,0,0,0,71.07,33.4Z"/><path class="cls-1" d="M96.87,27.43h5.63c.1,1.55.19,3,.26,4.23s.16,2.54.26,3.79A15.43,15.43,0,0,1,107.94,29a12.62,12.62,0,0,1,7.83-2.4,10.76,10.76,0,0,1,7.58,2.63,9.25,9.25,0,0,1,3,6.75v22.8H119.9V38.9a6.6,6.6,0,0,0-1.65-4.09A6.47,6.47,0,0,0,113.52,33a10.61,10.61,0,0,0-4.12.78,10.06,10.06,0,0,0-3.23,2.14A9.94,9.94,0,0,0,104,39.12a10.52,10.52,0,0,0-.79,4.13V58.78H96.87Z"/><path class="cls-1" d="M126.85,59.28H119.4V38.9a6.12,6.12,0,0,0-1.53-3.76,6,6,0,0,0-4.37-1.67,10.39,10.39,0,0,0-3.91.75,9.57,9.57,0,0,0-3.06,2,9.45,9.45,0,0,0-2,3.07,10,10,0,0,0-.75,3.93v16H96.37V26.93H103l0,.46c.1,1.55.18,3,.26,4.24l.12,1.94a15.58,15.58,0,0,1,4.25-5,13.23,13.23,0,0,1,8.14-2.5,11.28,11.28,0,0,1,7.92,2.76,9.79,9.79,0,0,1,3.16,7.1Zm-6.45-1h5.45V36A8.82,8.82,0,0,0,123,29.59a10.33,10.33,0,0,0-7.24-2.49,12.18,12.18,0,0,0-7.53,2.3,15,15,0,0,0-4.76,6.25l-.79,1.86-.16-2c-.11-1.25-.19-2.52-.27-3.8s-.14-2.4-.23-3.76H97.37V58.28h5.38v-15a11.27,11.27,0,0,1,.82-4.32,10.29,10.29,0,0,1,5.64-5.63,11,11,0,0,1,4.31-.82,6.94,6.94,0,0,1,5.1,2,7.12,7.12,0,0,1,1.78,4.39Z"/><path class="cls-1" d="M161.6,55.1a16.91,16.91,0,0,1-5.48,3.23,19,19,0,0,1-6.6,1.2A16.13,16.13,0,0,1,143,58.21a17.19,17.19,0,0,1-5.28-3.52,16.66,16.66,0,0,1-3.57-5.21,16.17,16.17,0,0,1,0-12.75A17.08,17.08,0,0,1,143,27.91a15.54,15.54,0,0,1,6.34-1.31,14.25,14.25,0,0,1,9.26,3.19,17.67,17.67,0,0,1,5.66,8.36q-2.33.83-5.32,2c-2,.8-4.08,1.63-6.23,2.51s-4.3,1.74-6.45,2.59-4.15,1.62-6,2.32a10.15,10.15,0,0,0,3.71,4.09,10,10,0,0,0,5.44,1.54,11.94,11.94,0,0,0,4.09-.75,9,9,0,0,0,3.34-2Zm-5.4-18.45a5.86,5.86,0,0,0-2.85-2.81,9,9,0,0,0-4-.94,9.66,9.66,0,0,0-4,.83,10.13,10.13,0,0,0-3.19,2.21A10.79,10.79,0,0,0,140,39.12a9.22,9.22,0,0,0-.78,3.68,3.16,3.16,0,0,0,0,.53.79.79,0,0,1,0,.22c1.3-.5,2.71-1.06,4.24-1.69L148.1,40l4.35-1.8Z"/><path class="cls-1" d="M149.52,60a16.73,16.73,0,0,1-6.68-1.36A17.34,17.34,0,0,1,137.4,55a16.87,16.87,0,0,1-3.67-5.36,16.57,16.57,0,0,1,0-13.15,17.35,17.35,0,0,1,9-9.07,16,16,0,0,1,6.54-1.36,14.8,14.8,0,0,1,9.57,3.3A18.31,18.31,0,0,1,164.7,38l.15.47-.46.16c-1.55.55-3.33,1.23-5.31,2l-6.22,2.51q-3.23,1.32-6.45,2.59-2.92,1.15-5.48,2.13a9.56,9.56,0,0,0,3.27,3.39,10.24,10.24,0,0,0,9.09.75,8.62,8.62,0,0,0,3.15-1.91l.35-.35,5.54,5.36-.4.36a17.3,17.3,0,0,1-5.63,3.32A19.36,19.36,0,0,1,149.52,60ZM149.3,27.1a15.1,15.1,0,0,0-6.14,1.27,16.73,16.73,0,0,0-5.06,3.46,16.55,16.55,0,0,0-3.46,5.1,15.65,15.65,0,0,0,0,12.35,16.09,16.09,0,0,0,3.46,5,16.64,16.64,0,0,0,5.13,3.42,17.82,17.82,0,0,0,17.63-2.67l-4.07-3.94A10.07,10.07,0,0,1,153.63,53a11.25,11.25,0,0,1-10-.84,10.61,10.61,0,0,1-3.9-4.29l-.24-.49.51-.2q2.78-1.05,6-2.32c2.15-.85,4.29-1.71,6.44-2.59l6.23-2.51c1.79-.71,3.43-1.34,4.88-1.86a17.2,17.2,0,0,0-5.34-7.67A13.89,13.89,0,0,0,149.3,27.1ZM138.82,44.28v-.73a.89.89,0,0,0,0-.11,2.45,2.45,0,0,1-.05-.64,9.67,9.67,0,0,1,.83-3.88,11.12,11.12,0,0,1,2.23-3.33,10.76,10.76,0,0,1,3.34-2.32,10,10,0,0,1,8.41.12,6.43,6.43,0,0,1,3.09,3l.23.48-4.24,1.74-4.35,1.8-4.54,1.88c-1.53.62-2.95,1.19-4.25,1.69ZM149.37,33.4a9.24,9.24,0,0,0-3.81.78,9.7,9.7,0,0,0-3,2.11,10.21,10.21,0,0,0-2,3,8.7,8.7,0,0,0-.74,3.47v.05c1.12-.44,2.33-.92,3.62-1.45l4.53-1.87,4.36-1.8,3.23-1.33a5.34,5.34,0,0,0-2.36-2.11A8.64,8.64,0,0,0,149.37,33.4Z"/><path class="cls-1" d="M172.47,13.62h6.38V27.5h8.4v5.7h-8.4V58.78h-6.38V33.2h-5.62V27.5h5.62Z"/><path class="cls-1" d="M179.35,59.28H172V33.7h-5.62V27H172V13.12h7.38V27h8.4v6.7h-8.4Zm-6.38-1h5.38V32.7h8.4V28h-8.4V14.12H173V28h-5.62v4.7H173Z"/><path class="cls-1" d="M189.72,43A15.84,15.84,0,0,1,191,36.65a16.54,16.54,0,0,1,3.57-5.21,17.21,17.21,0,0,1,5.28-3.53,17.11,17.11,0,0,1,13.13,0,16.84,16.84,0,0,1,5.25,3.53,15.91,15.91,0,0,1,3.45,5.21,17,17,0,0,1,0,12.75,16.39,16.39,0,0,1-15.34,10.13,17.73,17.73,0,0,1-6.49-1.2A15.81,15.81,0,0,1,191,49.74,16.84,16.84,0,0,1,189.72,43Zm6.38.07a10,10,0,0,0,.78,3.94,10.28,10.28,0,0,0,5.4,5.4,10,10,0,0,0,3.94.79,10.28,10.28,0,0,0,4-.79,10.14,10.14,0,0,0,3.26-2.18A10.8,10.8,0,0,0,215.67,47a9.53,9.53,0,0,0,.83-3.94,9.82,9.82,0,0,0-.83-4,10.86,10.86,0,0,0-2.21-3.26,10.25,10.25,0,0,0-7.24-3,9.83,9.83,0,0,0-3.94.79,10.11,10.11,0,0,0-5.4,5.43A10.31,10.31,0,0,0,196.1,43.1Z"/><path class="cls-1" d="M206.37,60a18.09,18.09,0,0,1-6.67-1.24,16.2,16.2,0,0,1-9.12-8.85A17.28,17.28,0,0,1,189.22,43a16.25,16.25,0,0,1,1.36-6.58,17,17,0,0,1,3.67-5.37,17.93,17.93,0,0,1,5.44-3.63,17.6,17.6,0,0,1,13.52,0,17.39,17.39,0,0,1,5.4,3.63,16.46,16.46,0,0,1,3.56,5.38,17.48,17.48,0,0,1,0,13.13A16.77,16.77,0,0,1,218.62,55a17,17,0,0,1-12.25,5Zm.08-32.93a16.06,16.06,0,0,0-6.37,1.27A16.87,16.87,0,0,0,195,31.79a16.25,16.25,0,0,0-3.46,5.06A15.36,15.36,0,0,0,190.22,43a16.36,16.36,0,0,0,1.27,6.51,15.78,15.78,0,0,0,3.45,5.05,15.47,15.47,0,0,0,5.13,3.27,17.16,17.16,0,0,0,6.3,1.17,16,16,0,0,0,6.44-1.28,15.67,15.67,0,0,0,8.44-8.54,16.54,16.54,0,0,0,0-12.37,15.45,15.45,0,0,0-3.34-5.05,16.61,16.61,0,0,0-5.1-3.42A16,16,0,0,0,206.45,27.1Zm-.23,26.63a10.4,10.4,0,0,1-4.13-.83,10.75,10.75,0,0,1-5.67-5.66,10.66,10.66,0,0,1-.82-4.14,10.88,10.88,0,0,1,.82-4.17,10.64,10.64,0,0,1,5.67-5.7,10.85,10.85,0,0,1,8.3,0,10.51,10.51,0,0,1,3.42,2.28,11,11,0,0,1,2.32,3.41A10.27,10.27,0,0,1,217,43.1a10.14,10.14,0,0,1-.87,4.14,11.37,11.37,0,0,1-2.32,3.38,10.75,10.75,0,0,1-7.59,3.11Zm0-20.33a9.39,9.39,0,0,0-3.74.75,9.62,9.62,0,0,0-5.14,5.17,9.83,9.83,0,0,0-.74,3.78,9.53,9.53,0,0,0,.74,3.74,9.72,9.72,0,0,0,15.77,3.07,10.54,10.54,0,0,0,2.11-3.08A9.16,9.16,0,0,0,216,43.1a9.3,9.3,0,0,0-.79-3.77,10.09,10.09,0,0,0-2.1-3.11,9.76,9.76,0,0,0-6.89-2.82Z"/><path class="cls-1" d="M229,15.43a3.88,3.88,0,0,1,1.31-3,4.09,4.09,0,0,1,2.81-1.2,4,4,0,0,1,2.78,1.2,3.94,3.94,0,0,1,1.27,3,3.84,3.84,0,0,1-1.27,3,4.07,4.07,0,0,1-2.78,1.16,4.18,4.18,0,0,1-2.81-1.16A3.78,3.78,0,0,1,229,15.43Zm7.2,43.35h-6.38V27.43h6.38Z"/><path class="cls-1" d="M236.65,59.28h-7.38V26.93h7.38Zm-6.38-1h5.38V27.93h-5.38Zm2.8-38.23a4.64,4.64,0,0,1-3.14-1.29,4.25,4.25,0,0,1-1.48-3.33,4.37,4.37,0,0,1,1.47-3.37,4.37,4.37,0,0,1,6.27,0,4.47,4.47,0,0,1,1.43,3.37,4.31,4.31,0,0,1-1.44,3.33A4.52,4.52,0,0,1,233.07,20.05Zm0-8.32a3.6,3.6,0,0,0-2.47,1.06,3.38,3.38,0,0,0-1.15,2.64A3.25,3.25,0,0,0,230.59,18a3.42,3.42,0,0,0,4.92,0,3.31,3.31,0,0,0,1.11-2.59,3.45,3.45,0,0,0-1.12-2.64A3.43,3.43,0,0,0,233.07,11.73Z"/><path class="cls-1" d="M243,43.1a17.7,17.7,0,0,1,1.24-6.71,15.6,15.6,0,0,1,3.41-5.21,15.37,15.37,0,0,1,5.14-3.38,16.92,16.92,0,0,1,6.41-1.2,14.46,14.46,0,0,1,4.17.56,14.91,14.91,0,0,1,3.15,1.35,10.22,10.22,0,0,1,2.21,1.77A11,11,0,0,1,270.12,32V.5h6.45V58.78h-6.45V56.45a7.57,7.57,0,0,1,.07-1,7.57,7.57,0,0,0,.08-.94,14.62,14.62,0,0,1-1.76,1.76,14.46,14.46,0,0,1-2.37,1.62,12.92,12.92,0,0,1-3.11,1.2,17.85,17.85,0,0,1-10.72-.87,14.79,14.79,0,0,1-8.18-8.73A18.71,18.71,0,0,1,243,43.1Zm6.45-.07a10.44,10.44,0,0,0,.79,4,9.79,9.79,0,0,0,5.36,5.36,10.66,10.66,0,0,0,4.13.79,10.89,10.89,0,0,0,4.16-.79,9.9,9.9,0,0,0,3.3-2.18A9.6,9.6,0,0,0,269.37,47a11.12,11.12,0,0,0,0-8,9.25,9.25,0,0,0-2.14-3.18,10.11,10.11,0,0,0-3.3-2.14,10.7,10.7,0,0,0-4.16-.79,10.48,10.48,0,0,0-4.13.79,9.86,9.86,0,0,0-3.22,2.14,10,10,0,0,0-2.93,7.2Z"/><path class="cls-1" d="M259,60a17,17,0,0,1-6.92-1.36,15.37,15.37,0,0,1-8.44-9,19.22,19.22,0,0,1-1.12-6.55,18.11,18.11,0,0,1,1.28-6.9,16.2,16.2,0,0,1,3.52-5.38,15.91,15.91,0,0,1,5.3-3.48,17.54,17.54,0,0,1,6.6-1.24,14.83,14.83,0,0,1,7.57,2,10.25,10.25,0,0,1,2.33,1.86q.25.27.48.54V0h7.45V59.28h-7.45V56.45c0-.17,0-.35,0-.54-.25.25-.52.49-.81.73a14.7,14.7,0,0,1-2.44,1.67,13.5,13.5,0,0,1-3.23,1.25A16.9,16.9,0,0,1,259,60Zm.22-32.93A16.54,16.54,0,0,0,253,28.26a14.71,14.71,0,0,0-8.27,8.32,17.13,17.13,0,0,0-1.21,6.52,18.1,18.1,0,0,0,1.06,6.2,14.34,14.34,0,0,0,7.91,8.46A16,16,0,0,0,259,59a15.77,15.77,0,0,0,3.89-.44,12.76,12.76,0,0,0,3-1.15,13.39,13.39,0,0,0,2.28-1.56,13.75,13.75,0,0,0,1.71-1.7l.88-1.06V54.5a8.42,8.42,0,0,1-.08,1,7,7,0,0,0-.07,1v1.83h5.45V1h-5.45V33.8l-.93-1.54a10.51,10.51,0,0,0-1.29-1.65,9.47,9.47,0,0,0-2.1-1.67,13.89,13.89,0,0,0-3-1.3A13.72,13.72,0,0,0,259.24,27.1Zm.53,26.63a11.09,11.09,0,0,1-4.32-.83,10.32,10.32,0,0,1-5.63-5.63A10.87,10.87,0,0,1,249,43a10.56,10.56,0,0,1,3.08-7.56,10.39,10.39,0,0,1,3.38-2.24,11.09,11.09,0,0,1,4.32-.83,11.31,11.31,0,0,1,4.35.83,10.75,10.75,0,0,1,3.46,2.24,9.74,9.74,0,0,1,2.25,3.35,11.59,11.59,0,0,1,0,8.41,10.33,10.33,0,0,1-2.24,3.39,10.73,10.73,0,0,1-3.47,2.28A11.31,11.31,0,0,1,259.77,53.73Zm0-20.33a10,10,0,0,0-3.93.75,9.5,9.5,0,0,0-3.07,2A9.57,9.57,0,0,0,250,43a10,10,0,0,0,.75,3.85,9.61,9.61,0,0,0,2,3.07,9.5,9.5,0,0,0,3.07,2,10.19,10.19,0,0,0,3.93.75,10.51,10.51,0,0,0,4-.75,9.7,9.7,0,0,0,3.14-2.07,9.57,9.57,0,0,0,2-3.06,10.66,10.66,0,0,0,0-7.65,8.93,8.93,0,0,0-2-3,9.82,9.82,0,0,0-3.14-2A10.32,10.32,0,0,0,259.77,33.4Z"/><path class="cls-1" d="M312.12,55.1a16.91,16.91,0,0,1-5.48,3.23,19,19,0,0,1-6.6,1.2,16,16,0,0,1-6.48-1.32,17.11,17.11,0,0,1-5.29-3.52,16.47,16.47,0,0,1-3.56-5.21,16.05,16.05,0,0,1,0-12.75,16.87,16.87,0,0,1,3.56-5.25,17.13,17.13,0,0,1,5.21-3.57,15.58,15.58,0,0,1,6.34-1.31,14.23,14.23,0,0,1,9.26,3.19,17.6,17.6,0,0,1,5.66,8.36q-2.33.83-5.32,2c-2,.8-4.08,1.63-6.23,2.51s-4.3,1.74-6.45,2.59-4.15,1.62-6,2.32a10.11,10.11,0,0,0,3.72,4.09,10,10,0,0,0,5.43,1.54,11.89,11.89,0,0,0,4.09-.75,9,9,0,0,0,3.34-2Zm-5.4-18.45a5.86,5.86,0,0,0-2.85-2.81,9,9,0,0,0-4-.94,9.69,9.69,0,0,0-4,.83,10.24,10.24,0,0,0-3.19,2.21,10.57,10.57,0,0,0-2.13,3.18,9.06,9.06,0,0,0-.79,3.68,2.2,2.2,0,0,0,0,.53,1.22,1.22,0,0,1,0,.22c1.3-.5,2.71-1.06,4.24-1.69s3-1.25,4.54-1.87l4.35-1.8Z"/><path class="cls-1" d="M300,60a16.73,16.73,0,0,1-6.68-1.36A17.58,17.58,0,0,1,287.92,55a16.87,16.87,0,0,1-3.67-5.36,16.57,16.57,0,0,1,0-13.15,17.44,17.44,0,0,1,9-9.07,16,16,0,0,1,6.54-1.36,14.84,14.84,0,0,1,9.58,3.3A18.37,18.37,0,0,1,315.22,38l.15.47-.46.16c-1.55.55-3.33,1.23-5.31,2l-6.22,2.51q-3.22,1.32-6.45,2.59-2.93,1.15-5.48,2.13a9.56,9.56,0,0,0,3.27,3.39,10.24,10.24,0,0,0,9.09.75A8.62,8.62,0,0,0,307,50.1l.35-.35,5.54,5.36-.4.36a17.3,17.3,0,0,1-5.63,3.32A19.36,19.36,0,0,1,300,60Zm-.22-32.93a15.13,15.13,0,0,0-6.14,1.27,16.73,16.73,0,0,0-5.06,3.46,16.55,16.55,0,0,0-3.46,5.1,15.65,15.65,0,0,0,0,12.35,16.09,16.09,0,0,0,3.46,5,16.64,16.64,0,0,0,5.13,3.42,17.24,17.24,0,0,0,12.72.11,16.94,16.94,0,0,0,4.91-2.78l-4.07-3.94A10.07,10.07,0,0,1,304.15,53a11.26,11.26,0,0,1-10-.84,10.51,10.51,0,0,1-3.89-4.29l-.25-.49.52-.2q2.76-1.05,6-2.32T303,42.22l6.23-2.51c1.79-.71,3.43-1.34,4.88-1.86a17.12,17.12,0,0,0-5.34-7.67A13.87,13.87,0,0,0,299.82,27.1ZM289.34,44.28v-.73a.89.89,0,0,0,0-.11,3,3,0,0,1-.05-.64,9.67,9.67,0,0,1,.83-3.88,11.31,11.31,0,0,1,2.23-3.33,10.81,10.81,0,0,1,3.35-2.32,10,10,0,0,1,8.4.12,6.43,6.43,0,0,1,3.09,3l.23.48-4.24,1.74-4.35,1.8-4.54,1.88c-1.53.62-2.94,1.19-4.25,1.69ZM299.89,33.4a9.16,9.16,0,0,0-3.8.78,9.63,9.63,0,0,0-3,2.11,10.21,10.21,0,0,0-2,3,8.7,8.7,0,0,0-.74,3.47v.05c1.13-.44,2.33-.92,3.62-1.45,1.53-.62,3-1.25,4.54-1.87l4.35-1.8L306,36.4a5.42,5.42,0,0,0-2.37-2.11A8.64,8.64,0,0,0,299.89,33.4Z"/><path class="cls-1" d="M338.29,27.43h5.63c.1,1.55.19,3,.26,4.23s.16,2.54.26,3.79A16.77,16.77,0,0,1,349,29a11.63,11.63,0,0,1,7.54-2.44,11.07,11.07,0,0,1,7.35,2.33A9,9,0,0,1,367.09,35a17.84,17.84,0,0,1,4.62-6.07,11.56,11.56,0,0,1,7.38-2.33,10.82,10.82,0,0,1,7.69,2.63,9.29,9.29,0,0,1,3,6.75v22.8h-6.45V38.9a6.68,6.68,0,0,0-1.61-4.09q-1.46-1.68-4.76-1.83a8.93,8.93,0,0,0-7.05,2.88,11.37,11.37,0,0,0-2.7,7.39V58.78h-6.38V38.9A6,6,0,0,0,354.42,33a10.09,10.09,0,0,0-4.05.78,9.4,9.4,0,0,0-3.08,2.14,9.21,9.21,0,0,0-2,3.22,12.17,12.17,0,0,0-.67,4.13V58.78h-6.38Z"/><path class="cls-1" d="M390.24,59.28h-7.45V38.9a6.18,6.18,0,0,0-1.49-3.76,6,6,0,0,0-4.4-1.67,8.52,8.52,0,0,0-6.66,2.72,10.92,10.92,0,0,0-2.57,7.08v16h-7.38V38.9a6,6,0,0,0-1.55-3.75,6.07,6.07,0,0,0-4.35-1.68,9.78,9.78,0,0,0-3.82.75,8.55,8.55,0,0,0-4.76,5.07,11.67,11.67,0,0,0-.64,4v16h-7.38V26.93h6.6l0,.46c.1,1.55.18,3,.26,4.24l.12,1.91a16.27,16.27,0,0,1,3.86-4.88,12.14,12.14,0,0,1,7.85-2.56,11.63,11.63,0,0,1,7.68,2.44,9.42,9.42,0,0,1,3.13,5,17.57,17.57,0,0,1,4.07-5,12.07,12.07,0,0,1,7.69-2.44,11.36,11.36,0,0,1,8,2.76,9.81,9.81,0,0,1,3.12,7.1Zm-6.45-1h5.45V36a8.82,8.82,0,0,0-2.8-6.39,10.4,10.4,0,0,0-7.35-2.49A11.17,11.17,0,0,0,372,29.31a17.54,17.54,0,0,0-4.48,5.91l-.74,1.52-.2-1.68a8.61,8.61,0,0,0-3.05-5.75,10.63,10.63,0,0,0-7-2.21,11.25,11.25,0,0,0-7.22,2.32,16.48,16.48,0,0,0-4.4,6.23l-.79,1.86-.16-2c-.11-1.25-.19-2.52-.27-3.8s-.14-2.4-.23-3.76h-4.66V58.28h5.38v-15a12.78,12.78,0,0,1,.7-4.29,9.66,9.66,0,0,1,2.06-3.4,9.88,9.88,0,0,1,3.24-2.26,10.56,10.56,0,0,1,4.25-.82,6.54,6.54,0,0,1,6.87,6.39V58.28h5.38v-15a11.9,11.9,0,0,1,2.82-7.72,9.43,9.43,0,0,1,7.43-3.05c2.35.1,4.08.78,5.14,2a7.22,7.22,0,0,1,1.73,4.38Z"/><path class="cls-1" d="M406.24,42.2q-2.62-3.75-5.44-7.42t-5.36-7.35h7.88c.6,1,1.18,1.9,1.76,2.69s1.15,1.58,1.72,2.33S408,34,408.53,34.74s1.19,1.64,1.84,2.59q1.88-2.78,3.52-4.92t3.6-5h7.13c-.9,1.4-1.78,2.68-2.63,3.86l-2.55,3.52-2.59,3.6q-1.31,1.85-2.73,4.09,1.35,1.8,2.88,3.9l3.12,4.24c1.05,1.42,2.07,2.84,3.07,4.24l2.78,3.9h-8.18q-2.1-2.93-4.12-5.4t-4.13-5.33q-1.95,2.85-3.82,5.33t-3.83,5.4h-7.12q2.85-4.28,5.77-8.37T406.24,42.2Z"/><path class="cls-1" d="M426.94,59.28h-9.4l-.15-.21c-1.4-1.94-2.78-3.75-4.11-5.38s-2.47-3.1-3.72-4.78c-1.17,1.69-2.32,3.29-3.44,4.77-1.24,1.63-2.52,3.44-3.81,5.37l-.15.23h-8.33l.52-.78c1.88-2.82,3.82-5.64,5.79-8.38s3.71-5.26,5.5-7.91c-1.7-2.41-3.46-4.81-5.23-7.13s-3.69-4.93-5.38-7.37l-.54-.78h9.11l.15.24c.59,1,1.17,1.88,1.74,2.66s1.14,1.57,1.71,2.32,1.15,1.51,1.73,2.29c.46.61.93,1.28,1.43,2,1.11-1.61,2.16-3.06,3.14-4.33s2.29-3.09,3.58-5l.15-.21h8.3l-.49.77c-.89,1.38-1.78,2.69-2.64,3.88l-2.55,3.53-2.59,3.59c-.82,1.15-1.67,2.42-2.54,3.78.85,1.12,1.74,2.33,2.69,3.62s2.06,2.82,3.11,4.24,2.08,2.84,3.08,4.24l2.78,3.91Zm-8.89-1H425l-2.21-3.11q-1.5-2.1-3.08-4.24L416.6,46.7q-1.53-2.1-2.88-3.9l-.21-.28.18-.29c.94-1.48,1.87-2.86,2.76-4.11s1.74-2.42,2.59-3.6L421.59,31c.69-1,1.39-2,2.11-3.07h-5.94c-1.24,1.8-2.41,3.41-3.47,4.79s-2.27,3.05-3.51,4.89l-.41.6-.41-.6c-.65-1-1.26-1.8-1.83-2.57l-1.72-2.29c-.58-.75-1.16-1.53-1.74-2.33s-1.08-1.58-1.63-2.49H396.4c1.52,2.17,3.14,4.37,4.8,6.54,1.86,2.42,3.69,4.93,5.45,7.44l.2.28-.19.29c-1.85,2.75-3.77,5.52-5.71,8.22-1.78,2.48-3.54,5-5.25,7.58h5.92c1.26-1.87,2.5-3.62,3.7-5.21s2.52-3.42,3.81-5.3l.4-.58.41.56c1.38,1.87,2.76,3.66,4.11,5.31S416.69,56.4,418.05,58.28Z"/><path class="cls-2" d="M320.24,54a4.64,4.64,0,0,1,1.6-3.61A5.08,5.08,0,0,1,325.28,49a4.92,4.92,0,0,1,3.4,1.44A4.7,4.7,0,0,1,330.24,54a4.55,4.55,0,0,1-1.56,3.55,5,5,0,0,1-3.4,1.4,5.12,5.12,0,0,1-3.44-1.4A4.49,4.49,0,0,1,320.24,54Z"/></g></g></svg>