<svg xmlns="http://www.w3.org/2000/svg" width="19.139" height="19.139" viewBox="0 0 19.139 19.139"><g transform="translate(-1745.857 -51.361)"><path d="M73.65,30.918a1.122,1.122,0,1,0,1.122,1.122,1.122,1.122,0,0,0-1.122-1.122" transform="translate(1686.844 23.86)" fill="#313131"/><path d="M31.2,38.64a4.713,4.713,0,1,0,4.713,4.713A4.719,4.719,0,0,0,31.2,38.64m0,7.733a3.019,3.019,0,1,1,3.019-3.019A3.023,3.023,0,0,1,31.2,46.373" transform="translate(1724.308 17.577)" fill="#313131"/><path d="M13.39,31.717H5.749A5.755,5.755,0,0,1,0,25.968V18.327a5.755,5.755,0,0,1,5.749-5.749H13.39a5.756,5.756,0,0,1,5.749,5.749v7.642a5.756,5.756,0,0,1-5.749,5.749M5.749,14.379A3.952,3.952,0,0,0,1.8,18.327v7.642a3.953,3.953,0,0,0,3.948,3.948H13.39a3.953,3.953,0,0,0,3.948-3.948V18.327a3.952,3.952,0,0,0-3.948-3.948Z" transform="translate(1745.857 38.783)" fill="#313131"/></g></svg>